/* XPM */
static char *_b304a10848b480ba596241a7976896bw8NkDyGyq695VYzE[] = {
/* columns rows colors chars-per-pixel */
"32 32 128 2 ",
"   c #161616",
".  c #271F1A",
"X  c #2A221B",
"o  c #35291E",
"O  c #372B20",
"+  c #3D2C11",
"@  c #403124",
"#  c #453323",
"$  c #4D381C",
"%  c #4F3B27",
"&  c #503B28",
"*  c #5E4522",
"=  c #465231",
"-  c #485332",
";  c #4A5433",
":  c #525635",
">  c #575937",
",  c #475982",
"<  c #5B5C3C",
"1  c #4C5B81",
"2  c #4E5B81",
"3  c #70592B",
"4  c #565E80",
"5  c #575E80",
"6  c #595F7F",
"7  c #78652B",
"8  c #6C667C",
"9  c #6D667B",
"0  c #6E677B",
"q  c #816834",
"w  c #86673E",
"e  c #896642",
"r  c #74697A",
"t  c #846D47",
"y  c #916A3B",
"u  c #7A6C78",
"i  c #916A42",
"p  c #906C45",
"a  c #7E6E77",
"s  c #946C44",
"d  c #976E45",
"f  c #976E46",
"g  c #847075",
"h  c #956F47",
"j  c #997047",
"k  c #9A7047",
"l  c #9A7249",
"z  c #8D7A47",
"x  c #9C754C",
"c  c #9C754D",
"v  c #9D764F",
"b  c #9F774D",
"n  c #9F774E",
"m  c #9A7855",
"M  c #9F774F",
"N  c #A17950",
"B  c #A27950",
"V  c #A07A4C",
"C  c #A47B51",
"Z  c #A47B52",
"A  c #A47B53",
"S  c #A77B50",
"D  c #A87E54",
"F  c #A97F54",
"G  c #A3815C",
"H  c #AB8056",
"J  c #AC8155",
"K  c #AD8257",
"L  c #AE8256",
"P  c #AF8256",
"I  c #AF8358",
"U  c #B08457",
"Y  c #B08459",
"T  c #A88663",
"R  c #B18559",
"E  c #B2855A",
"W  c #B2865A",
"Q  c #B1875D",
"!  c #B4875B",
"~  c #B5875A",
"^  c #B2885F",
"/  c #B5885B",
"(  c #AD8A66",
")  c #AB8C62",
"_  c #AC8C63",
"`  c #B78A5D",
"'  c #B38B64",
"]  c #B68B63",
"[  c #B98B5E",
"{  c #B98D62",
"}  c #BA8D60",
"|  c #B79069",
" . c #BC9064",
".. c #BD9166",
"X. c #BD9167",
"o. c #BA926B",
"O. c #B7936D",
"+. c #B7936E",
"@. c #BC9269",
"#. c #BA9570",
"$. c #BF946B",
"%. c #BD966E",
"&. c #C0966D",
"*. c #C19971",
"=. c #BE9A78",
"-. c #C29B73",
";. c #C49E77",
":. c #C49E78",
">. c #C59F7A",
",. c #C7A27E",
"<. c #E2B88F",
"1. c #EEC39A",
"2. c white",
"3. c white",
"4. c white",
"5. c white",
"6. c white",
"7. c white",
"8. c white",
"9. c white",
"0. c white",
"q. c white",
"w. c white",
"e. c white",
"r. c white",
"t. c white",
"y. c white",
"u. c None",
/* pixels */
"$ 3 * * * $ 3 * * * * $ 3 * * * $ 3 * * * $ 3 * * * $ 3 * * * * ",
"+ 3 * * * $ 3 * * * * $ 3 * * * $ 3 * * * $ 3 * * * $ 3 * * * * ",
"$ 3 * * * $ 3 * * * z v v v e ] ] w v v v z 3 * * * $ 3 * * * * ",
"+ y * * * $ 3 * * z ) #.#.( ] 1.1.1.#.#.#.) z * * * + 3 * * * * ",
"+ 3 * * * + z v v A &.:.;.G 1.1.1.1.-.-.;.@.A v v z $ 3 * * * * ",
"+ 3 * * * z ) #.#.@.$.X.&.m 1.1.1.1.&.{ &.@.o.$.#.) z 7 * * * * ",
"+ y * * * v | ;.;.-.&.&.{ &.$ 1.] 7 { &.{ &.-.-.:.| c 7 * * * * ",
"+ y * * * l Q ..{ &.&.;.;.%.  1.1.  O.>.;.-.&.&.{ Q c y * * * * ",
"+ y * * z A W [ ..&.*.;._ ;   = =   < ;.;.*.&...{ W A z * * * * ",
"+ y * z ) o.{ ..*.*.&...- =         = > ..&.*.*...{ @.) z * * * ",
"+ y * c { *.{ @.;.;...[ = =         = = x ..;.;.&.&.&.o.v * * * ",
"+ y * l W &.{ ..;.;...t =             = : ..;.;.{ [ { W l * * * ",
"+ y * j P [ [ ..:.:.' 1.=             = <.&.:.;...[ [ L j * * * ",
"+ * $ j P [ [ ..:.,.T 1.1.            1.1.=.,.;...[ [ L j * * * ",
"+ + $ j P [ [ ..*.+.1.1.y             * 1.1.;.*.{ [ [ L j * * * ",
"+ $ y j P [ [ [ ..^ 1.1.y = = = = = = * 1.1.{  .{ [ [ L j * * * ",
"+ 3 3 k P [ [ [ [ M 1.1.              * 1.1.~ { { &.{ P j * * * ",
"$ y * k P [ [ [ [ Z 1.+     , , , , , * * 1./ { -.&.{ L j * * * ",
"+ y * k P [ [ [ [ Y   + y , , g r 2 , * *   } } @.o.} L j $ $ $ ",
"+ y * k P [ [ [ [ K     , , 5 [ [ 8 , ,     [ W A A W L j $ $ + ",
"+ y * k L [ [ [ [ F X 1., , u ` [ a , , 1.O [ W A A W L j 3 * $ ",
"+ y * k L [ [ [ [ [ B + , , K [ [ B , , $ D [ } o.o.{ L j * * * ",
"+ y * k L [ [ [ [ [ n + , 0 E [ [ U 9 , * [ [ @.:.;...P j * * * ",
"+ y * k L [ [ [ [ [ C , , R [ [ [ [ D , , [ [ ..:.;...P j * * * ",
"+ y * k P [ [ [ [ [ I , 1 W [ [ [ [ D , , [ [  .*.*. .P k * * * ",
"+ y * k P [ [ [ [ [ [ 6 4 [ [ [ [ [ ! , , N [ [ ..{ { L k * * * ",
"+ y * k P [ [ [ [ [ [ @ 7 ! [ [ [ [ [ *   H [ [ [ [ [ P k * * * ",
"+ 3 * k P [ [ [ [ [ p   7 K [ [ [ [ [ *   Z [ [ [ [ [ P k * * * ",
"$ y * d S L L L J h     7 b L L L L L *     V L L L L S d * * * ",
"+ 3 * * k k j j i o . # q f j j k j s *   & % j j j k d * * * * ",
"$ 3 * * * $ 3 * * * * $ 3 * * * $ 3 * * * $ 3 * * * $ 3 * * * * ",
"$ 3 * * * $ 3 * * * * $ 3 * * * $ 3 * * * $ 3 * * * $ 3 * * * * "
};
