/* XPM */
static char *result[] = {
/* columns rows colors chars-per-pixel */
"32 32 20 1 ",
"  c black",
". c #13160E",
"X c #2D0001",
"o c #252418",
"O c #2B2B1F",
"+ c #1E1D2E",
"@ c #680003",
"# c #472A0A",
"$ c #413F2B",
"% c #4F533A",
"& c #000052",
"* c #313047",
"= c #605F41",
"- c #686B4F",
"; c #4B4A66",
": c #A50005",
"> c #000099",
", c #6A6987",
"< c #8B8AAC",
"1 c #B5B4D1",
/* pixels */
"OO$$..$$oo$$##$$$$--oo$$##$$$$OO",
"OO$$..$$oo$$##$$$$--oo$$##$$$$OO",
"%%oo$$$$OO$$oo$$OOoo..$$OO$$$$$$",
"%%oo$$$$OO$$oo$$OOoo..$$OO$$$$$$",
"oo..OO$$--oo####$$##--OO$$$$--oo",
"oo..OO$$--oo####$$##--OO$$$$--oo",
"$$OO$$==oo..$$OO--oo####OO$$oo..",
"$$OO$$==oo..$*<<<,*o####OO$$oo..",
"OO$$##$$OO%%*<;>>;,*%%oo$$OO$$OO",
"OO$$##$$OO%%*<&<<&;*%%oo$$OO$$OO",
"--oo$$OO$$oo*,<<<,;+oo..$$$$OO##",
"--oo$$OO$$oo.*<1<;+$oo..$$$$OO##",
"oo..##;1,+OO##*1<+--##;1,+--oo$$",
"oo..##@:@X;1<<11<,,<1<@:@X--oo$$",
"$$==$$@:@X    *1<+    @:@Xoo..$$",
"$$==$$@:@X;1<<11<,,<1<@:@Xoo..$$",
"$$##%%;<,+OO$$*1<+$$OO;<,+$$$$==",
"$$##%%oo##OO$$*<<+$$OO##OO$$$$==",
"OO$$oo..--$$##*1<+OO$$OO--OO$$##",
"OO$$oo..--$$#*,1<;+O$$OO--OO$$##",
"$$OO$$OO$$OO$1,;;,1#OO$$OO$$OO$$",
"$$OO$$OO$$OO:,;11;,:OO$$OO$$OO$$",
"OO##OO%%oo#:@**++**@:$%%oo$$##OO",
"OO##OO%%oo1@X+$$OO+X@1%%oo$$##OO",
"$$$$$$oo.1,$==$$##OO#,1o..OO--oo",
"$$$$$$oo..$$==$$##OO##oo..OO--oo",
"$$--oo$$OO##$$OO$$--ooOO$$##oo..",
"$$--oo$$OO##$$OO$$--ooOO$$##oo..",
"$$oo..OO$$%%oo$$OOoo..$$--##$$##",
"$$oo..OO$$%%oo$$OOoo..$$--##$$##",
"OO##OO$$$$oo..OO$$OO##OO$$OOOO$$",
"OO##OO$$$$oo..OO$$OO##OO$$OOOO$$"
};
