/* XPM */
static char *result[] = {
/* columns rows colors chars-per-pixel */
"32 32 20 1 ",
"  c black",
". c #13160E",
"X c #2D0001",
"o c #252418",
"O c #2B2B1F",
"+ c #1E1D2E",
"@ c #680003",
"# c #472A0A",
"$ c #413F2B",
"% c #4F533A",
"& c #000052",
"* c #313047",
"= c #605F41",
"- c #686B4F",
"; c #4B4A66",
": c #A50005",
"> c #000099",
", c #6A6987",
"< c #8B8AAC",
"1 c #B5B4D1",
/* pixels */
"OO$$..$$oo$$##$$$$--oo$$##$$$$OO",
"OO$$..$$oo$$##$$$$--oo$$##$$$$OO",
"%%oo$$$$OO$$oo$$OOoo..$$OO$$$$$$",
"%%oo$$$$OO$$oo$$OOoo..$$OO$$$$$$",
"oo..OO$$--oo####$$##--OO$$$$--oo",
"oo..OO$$--oo####$$##--OO$$$$--oo",
"$$OO$$==oo..,,OO--oo####OO$$oo..",
"$$OO$$==oo.@:1*O--oo####OO$$oo..",
"OO$$##$$OO@::@*$oo.*<,,o$$OO$$OO",
"OO$$##$$O;::@XX$oo*<;&<,$$OO$$OO",
"--oo$$OO$;<@XX*;##*,&>><,$$$OO##",
"--oo$$OO$$**X+ 1*#*<<<>&;$$$OO##",
"oo..##$$##OO#1+ <**<1<&;+O--oo$$",
"oo..##$$##OO##<+ <<1;;**OO--oo$$",
"$$==$$OO$$$$$$#<;,1<##OO$$oo..$$",
"$$==$$OO$$$$$$#*<1;<*#OO$$oo..$$",
"$$##%%oo##OO$$*<1;+ 1+##OO$$$$==",
"$$##%%,11::11,<1**<+ 1#,,O$$$$==",
"OO$$oo..@@,,;;1;*.+1+ @:1*OO$$##",
"OO$$oo..--*++*;,..O+<@::@*OO$$##",
"$$OO$$OO$$OO++;1$$##;::@XX$$OO$$",
"$$OO$$OO$$OO$+,:$$##;<@XXO$$OO$$",
"OO##OO%%oo##$*@:OO$$$**Xoo$$##OO",
"OO##OO%%oo##$$@1OO$$$$%%oo$$##OO",
"$$$$$$oo..$$==*1##OO##oo..OO--oo",
"$$$$$$oo..$$==$,##OO##oo..OO--oo",
"$$--oo$$OO##$$OO$$--ooOO$$##oo..",
"$$--oo$$OO##$$OO$$--ooOO$$##oo..",
"$$oo..OO$$%%oo$$OOoo..$$--##$$##",
"$$oo..OO$$%%oo$$OOoo..$$--##$$##",
"OO##OO$$$$oo..OO$$OO##OO$$OOOO$$",
"OO##OO$$$$oo..OO$$OO##OO$$OOOO$$"
};
