/* XPM */
static char *result[] = {
/* columns rows colors chars-per-pixel */
"32 32 15 1 ",
"  c #151610",
". c #2D0001",
"X c #1E1D2E",
"o c #460002",
"O c #680203",
"+ c #313047",
"@ c #850004",
"# c #A50005",
"$ c #CA0306",
"% c #925A25",
"& c #9B5925",
"* c #A4662C",
"= c #B7692C",
"- c #B77232",
"; c #010099",
/* pixels */
"******&&==****==****====&&**%%&&",
"******&&==****==****====&&**%%&&",
"**==******&&==&&====**&&**&&****",
"**==******&&==&&====**&&**&&****",
"****&&********====**==**&&******",
"****&&*******O@$@O**==**&&******",
"&&**==*****o;;###;;o&&==&&&&**&&",
"&&**==****oO@@@@@@@Oo&==&&&&**&&",
"&&**&&**&&oO#######Oo*&&****&&**",
"&&**&&**+oOO#$$$$$#OOo+&****&&**",
"==&&**** oOoOOOOOOOoOo *&&******",
"==&&****+oo#$$$$$$$#oo+*&&******",
"**&&**** .@O#$$$$$#O@. %****&&**",
"**&&****+OOO#$$$$$#OOO+%****&&**",
"&&**&&&&XoOO#$$$$$#OOoX*********",
"&&**&&&&*oOO#$$$$$#OOo**********",
"==**==**XoOOOoooooOOOoX&**&&==&&",
"==**==**+oOOoooooooOOo+&**&&==&&",
"**==**== oOoooooooooOo *******&&",
"**==**==+.ooooooooooo.+*******&&",
"**&&****X.............X*****==**",
"**&&****XXX.........XXX*****==**",
"==**&&**               *******&&",
"==**&&**               *******&&",
"**&&******           *&&**&&****",
"**&&********       ***&&**&&****",
"&&&&**&&&&&&**&&********--****&&",
"&&&&**&&&&&&**&&********--****&&",
"**&&&&**&&&&&&==&&--****&&**&&**",
"**&&&&**&&&&&&==&&--****&&**&&**",
"%%**&&**&&****&&**==**&&******&&",
"%%**&&**&&****&&**==**&&******&&"
};
