/* XPM */
static char *_c2abf9a284b454ca76adbed80c452d7xB3six3Jzwmy92BM[] = {
/* columns rows colors chars-per-pixel */
"32 32 5 1 ",
"  c #241600",
". c #311B00",
"X c #3B2406",
"o c #4A2A0A",
"O c #59310C",
/* pixels */
"ooooXXXXooOOoo..XX....  ..XXoo..",
"ooooXXXXooOOoo..XX....  ..XXoo..",
"XXooOOOOooXX..  ..  ..XX  ....  ",
"XXooOOOOooXX..  ..  ..XX  ....  ",
"XXXXXXoo..XXXX..  ..XXXXooooXXXX",
"XXXXXXoo..XXXX..  ..XXXXooooXXXX",
"XXXXXX..  XXXXXXOOooXXooOOXXXXXX",
"XXXXXX..  XXXXXXOOooXXooOOXXXXXX",
"..  ....XXXXXXXXXXooOOooXXXXoo..",
"..  ....XXXXXXXXXXooOOooXXXXoo..",
"  ..XXooXXXXoo..XXXXXXXXXXXX..  ",
"  ..XXooXXXXoo..XXXXXXXXXXXX..  ",
"..XXooOOXXXX..  XXXXXX..  ..XXXX",
"..XXooOOXXXX..  XXXXXX..  ..XXXX",
"ooooOOXXXXXXXXXXXX..    ..ooXXXX",
"ooooOOXXXXXXXXXXXX..    ..ooXXXX",
"XXXXXXXX....XXXX..  ..XXXXOOooXX",
"XXXXXXXX....XXXX..  ..XXXXOOooXX",
"XXXXXXXX..ooXX..  ..XXXXooOOooXX",
"XXXXXXXX..ooXX..  ..XXXXooOOooXX",
"oo..XXXXXXXXXX....XXooooOOooXXXX",
"oo..XXXXXXXXXX....XXooooOOooXXXX",
"..  XXXXXXoo......ooOOXXXXXXXXXX",
"..  XXXXXXoo......ooOOXXXXXXXXXX",
"XXXXXXXXXX..  XX..oo..XXXXXXXXXX",
"XXXXXXXXXX..  XX..oo..XXXXXXXXXX",
"XXXXXX....  ..XXXX..  XXXXXXXXXX",
"XXXXXX....  ..XXXX..  XXXXXXXXXX",
"XX..    ....  ..XXXXXXXXoo..XXXX",
"XX..    ....  ..XXXXXXXXoo..XXXX",
"..  ....XXXXooOOXXXXXXXX..  XXXX",
"..  ....XXXXooOOXXXXXXXX..  XXXX"
};
