/* XPM */
static char *fb7a640468954ec2a42c12a90f562ba9O2efv8DlhigSnQx6[] = {
/* columns rows colors chars-per-pixel */
"32 32 8 1 ",
"  c #13160E",
". c #252418",
"X c #2B2B1F",
"o c #472A0A",
"O c #413F2B",
"+ c #4F533A",
"@ c #605F41",
"# c #686B4F",
/* pixels */
"XXOO  OO..OOooOOOO##..OOooOOOOXX",
"XXOO  OO..OOooOOOO##..OOooOOOOXX",
"++..OOOOXXOO..OOXX..  OOXXOOOOOO",
"++..OOOOXXOO..OOXX..  OOXXOOOOOO",
"..  XXOO##..ooooOOoo##XXOOOO##..",
"..  XXOO##..ooooOOoo##XXOOOO##..",
"OOXXOO@@..  OOXX##..ooooXXOO..  ",
"OOXXOO@@..  OOXX##..ooooXXOO..  ",
"XXOOooOOXX++..OO..  ++..OOXXOOXX",
"XXOOooOOXX++..OO..  ++..OOXXOOXX",
"##..OOXXOO..  OOooOO..  OOOOXXoo",
"##..OOXXOO..  OOooOO..  OOOOXXoo",
"..  ooOOooXXooOOOO##ooOOXX##..OO",
"..  ooOOooXXooOOOO##ooOOXX##..OO",
"OO@@OOXXOOOOOOooXXooooXXOO..  OO",
"OO@@OOXXOOOOOOooXXooooXXOO..  OO",
"OOoo++..ooXXOO++..OOXXooXXOOOO@@",
"OOoo++..ooXXOO++..OOXXooXXOOOO@@",
"XXOO..  ##OOoo..  XXOOXX##XXOOoo",
"XXOO..  ##OOoo..  XXOOXX##XXOOoo",
"OOXXOOXXOOXXOOXXOOooXXOOXXOOXXOO",
"OOXXOOXXOOXXOOXXOOooXXOOXXOOXXOO",
"XXooXX++..ooOOOOXXOOOO++..OOooXX",
"XXooXX++..ooOOOOXXOOOO++..OOooXX",
"OOOOOO..  OO@@OOooXXoo..  XX##..",
"OOOOOO..  OO@@OOooXXoo..  XX##..",
"OO##..OOXXooOOXXOO##..XXOOoo..  ",
"OO##..OOXXooOOXXOO##..XXOOoo..  ",
"OO..  XXOO++..OOXX..  OO##ooOOoo",
"OO..  XXOO++..OOXX..  OO##ooOOoo",
"XXooXXOOOO..  XXOOXXooXXOOXXXXOO",
"XXooXXOOOO..  XXOOXXooXXOOXXXXOO"
};
