/* XPM */
static char *result[] = {
/* columns rows colors chars-per-pixel */
"32 32 18 1 ",
"  c #13160E",
". c #151610",
"X c #2D0001",
"o c #252418",
"O c #2B2B1F",
"+ c #1E1D2E",
"@ c #460002",
"# c #680203",
"$ c #472A0A",
"% c #413F2B",
"& c #4F533A",
"* c #313047",
"= c #605F41",
"- c #686B4F",
"; c #850004",
": c #A50005",
"> c #CA0306",
", c #010099",
/* pixels */
"OO%%  %%oo%%$$%%%%--oo%%$$%%%%OO",
"OO%%  %%oo%%$$%%%%--oo%%$$%%%%OO",
"&&oo%%%%OO%%oo%%OOoo  %%OO%%%%%%",
"&&oo%%%%OO%%oo%%OOoo  %%OO%%%%%%",
"oo  OO%%--oo$$$$%%$$--OO%%%%--oo",
"oo  OO%%--oo$#;>;#$$--OO%%%%--oo",
"%%OO%%==oo @,,:::,,@$$$$OO%%oo  ",
"%%OO%%==oo@#;;;;;;;#@$$$OO%%oo  ",
"OO%%$$%%OO@#:::::::#@&oo%%OO%%OO",
"OO%%$$%%*@##:>>>>>:##@*o%%OO%%OO",
"--oo%%OO.@#@#######@#@. %%%%OO$$",
"--oo%%OO*@@:>>>>>>>:@@* %%%%OO$$",
"oo  $$%%.X;#:>>>>>:#;X.%OO--oo%%",
"oo  $$%%*###:>>>>>:###*%OO--oo%%",
"%%==%%OO+@##:>>>>>:##@+O%%oo  %%",
"%%==%%OO%@##:>>>>>:##@OO%%oo  %%",
"%%$$&&oo+@###@@@@@###@+$OO%%%%==",
"%%$$&&oo*@##@@@@@@@##@*$OO%%%%==",
"OO%%oo  .@#@@@@@@@@@#@.O--OO%%$$",
"OO%%oo  *X@@@@@@@@@@@X*O--OO%%$$",
"%%OO%%OO+XXXXXXXXXXXXX+%OO%%OO%%",
"%%OO%%OO+++XXXXXXXXX+++%OO%%OO%%",
"OO$$OO&&...............&oo%%$$OO",
"OO$$OO&&...............&oo%%$$OO",
"%%%%%%oo  ...........$oo  OO--oo",
"%%%%%%oo  %%.......O$$oo  OO--oo",
"%%--oo%%OO$$%%OO%%--ooOO%%$$oo  ",
"%%--oo%%OO$$%%OO%%--ooOO%%$$oo  ",
"%%oo  OO%%&&oo%%OOoo  %%--$$%%$$",
"%%oo  OO%%&&oo%%OOoo  %%--$$%%$$",
"OO$$OO%%%%oo  OO%%OO$$OO%%OOOO%%",
"OO$$OO%%%%oo  OO%%OO$$OO%%OOOO%%"
};
