/* XPM */
static char *result[] = {
/* columns rows colors chars-per-pixel */
"32 32 18 1 ",
"  c #13160E",
". c #151610",
"X c #2D0001",
"o c #252418",
"O c #2B2B1F",
"+ c #1E1D2E",
"@ c #460002",
"# c #680203",
"$ c #472A0A",
"% c #413F2B",
"& c #4F533A",
"* c #020052",
"= c #313047",
"- c #605F41",
"; c #686B4F",
": c #850004",
"> c #A50005",
", c #CA0306",
/* pixels */
"OO%%  %%oo%%$$%%%%;;oo%%$$%%%%OO",
"OO%%  %%oo%%$$%%%%;;oo%%$$%%%%OO",
"&&oo%%%%OO%%oo%%OOoo  %%OO%%%%%%",
"&&oo%%%%OO%%oo%%OOoo  %%OO%%%%%%",
"oo  OO%%;;oo$$$$%%$$;;OO%%%%;;oo",
"oo  OO%%;;oo$$$$%%$$;;OO%%%%;;oo",
"%%OO%%--oo  %%OO;;oo$$$$OO%%oo  ",
"%%OO%%--oo >>%>>>>>>>>>>OO%%oo  ",
"OO%%$$%%#*:,,#,,,,,,,,,,:%OO%%OO",
"OO%%$$%%#*:,,#,,,,,,,,,,:#OO%%OO",
";;oo%%O>>#:,,#,,,,,,,,,,:#%%OO$$",
";;oo%%>>,#:,,#,,,,,,,,,,:#%%OO$$",
"oo  $>,,>*:>>#>>>>>>>>>>:#;;oo%%",
"oo  $::>:*:#>@##########:#;;oo%%",
"%%--%@#:###@#X@@@@@@@@@@@#oo  %%",
"%%--%XX@##@@@#X@@@@@@@@@@@oo  %%",
"%%$$&&XX@@@@@@#X@@@@@@@@@@%%%%--",
"%%$$&&..XXXXXXX@XXXXXXXXXX%%%%--",
"OO%%o....XXXXXXX@XXXXXXXX.OO%%$$",
"OO%%o....+=.=.=.=.+=.=.=+.OO%%$$",
"%%OO%.....+++++++..+++++..%%OO%%",
"%%OO%%...................O%%OO%%",
"OO$$OO&&.................o%%$$OO",
"OO$$OO&&o...............oo%%$$OO",
"%%%%%%oo  %............o  OO;;oo",
"%%%%%%oo  %%--%%$$OO$$oo  OO;;oo",
"%%;;oo%%OO$$%%OO%%;;ooOO%%$$oo  ",
"%%;;oo%%OO$$%%OO%%;;ooOO%%$$oo  ",
"%%oo  OO%%&&oo%%OOoo  %%;;$$%%$$",
"%%oo  OO%%&&oo%%OOoo  %%;;$$%%$$",
"OO$$OO%%%%oo  OO%%OO$$OO%%OOOO%%",
"OO$$OO%%%%oo  OO%%OO$$OO%%OOOO%%"
};
