/* XPM */
static char *result[] = {
/* columns rows colors chars-per-pixel */
"32 32 38 1 ",
"  c #161610",
". c #3B1E13",
"X c #3B2407",
"o c #3B2E07",
"O c #24241B",
"+ c #2A2B21",
"@ c #343527",
"# c #3F3F2E",
"$ c #4A2A09",
"% c #4A2718",
"& c #5D301E",
"* c #653B11",
"= c #713A24",
"- c #754716",
"; c #474834",
": c #52533B",
"> c #5E5F43",
", c #6A6B4E",
"< c #7A7B5A",
"1 c #824E1C",
"2 c #925A25",
"3 c #935A25",
"4 c #9B5925",
"5 c #9D5928",
"6 c #A6662B",
"7 c #A4662C",
"8 c #B3692E",
"9 c #B7692C",
"0 c #B77232",
"q c #8B8D66",
"w c #9E9F76",
"e c #ACB283",
"r c #BFC590",
"t c #D2D89E",
"y c #E5ECAC",
"u c #F9FFBF",
"i c #E5E4F4",
"p c white",
/* pixels */
"77777744997777997777999944772244",
"77777744997777997777999944772244",
"77997777774499449999774477447777",
"77997777774499449999774477447777",
"77774477777777999977997744777777",
"77774477777777999977997744777777",
"447799777783****-***-49944447744",
"4477997777-11111111$139944447744",
"44774477431>wyy,@@*111-477774477",
"447744731>rrtiw,;@;;re>1-6774477",
"99447773><rrruq,@OO@,yy>1-677777",
"994477*1>qwrrtqOO OO@wup>*-77777",
"774477=>><wwryy    qytrrr1*74477",
"774477&:>><wrr#    ytrrrr1674477",
"447744%:>>,,,#     rrrrww1677777",
"447744%@            ,wwqq1-77777",
"997791%+O           +,<<,1*49944",
"997791&@O             ,>>1149944",
"779971*O@    +        ;::1177744",
"779973*.OO O;q        +:#-577744",
"7744771.+@@;:<q       O#@*179977",
"7744777*XO#;:>>,;@OO+@+*37779977",
"99774478*o@##:::,,q@@+3167777744",
"997744771*O+@##;;##++35777777744",
"7744777777811=====17774477447777",
"77447777777777774477774477447777",
"44447744444477447777777700777744",
"44447744444477447777777700777744",
"77444477444444994400777744774477",
"77444477444444994400777744774477",
"22774477447777447799774477777744",
"22774477447777447799774477777744"
};
