/* XPM */
static char *result[] = {
/* columns rows colors chars-per-pixel */
"32 32 43 1 ",
"  c #161610",
". c #1B1610",
"X c #2A150E",
"o c #3B1E13",
"O c #24241B",
"+ c #2A211B",
"@ c #2A2B21",
"# c #3E2D27",
"$ c #343527",
"% c #3F3F2E",
"& c #59310C",
"* c #4A2718",
"= c #5D301E",
"- c #653B11",
"; c #553F34",
": c #713A24",
"> c #754716",
", c #474834",
"< c #52533B",
"1 c #434343",
"2 c #5E5F43",
"3 c #6D5243",
"4 c #6A6B4E",
"5 c #7A7B5A",
"6 c #824E1C",
"7 c #86462E",
"8 c #925A25",
"9 c #935A25",
"0 c #9B5925",
"q c #9D5928",
"w c #9D5538",
"e c #A6662B",
"r c #A4662C",
"t c #B7692C",
"y c #B77232",
"u c #866652",
"i c #8B8D66",
"p c #9E9F76",
"a c #ACB283",
"s c #BFC590",
"d c #D2D89E",
"f c #E5ECAC",
"g c #F9FFBF",
/* pixels */
"rrrrrr00ttrrrrttrrrrtttt00rr8800",
"rrrrrr00ttrrrrttrrrrtttt00rr8800",
"rrttrrrrrr00tt00ttttrr00rr00rrrr",
"rrttrrrrrr00tt00ttttrr00rr00rrrr",
"rrrr00rrrrrrrrttttrrttrr00rrrrrr",
"rrrr00rrrrrrrrttttrrttrr00rrrrrr",
"00rrttrrrre6:-==>-=:>6tt0000rr00",
"00rrttrrrr:=*=;;3337:69e0000rr00",
"00rr00rr0>==#;24ii533w669rrr00rr",
"00rr00r:*#%,<4pdf%@%pau7:err00rr",
"tt00rr>#$$,<2isfi%O%gfp376errrrr",
"tt00r6=$$%445asg5O fggfp376rrrrr",
"rr00r:o$$%25isfgO%5ggggfa:7r00rr",
"rr00r=+$$%%25agg%5pfffgfd::r00rr",
"00rr0*++@@,,25p<5psdddffs*&rrrrr",
"00rr0*o.         O%pssdds*:rrrrr",
"ttrrt*o...OO$4id  O5ppssa*&0tt00",
"ttrrt=o.O+O$,is5O  @5iaap*:0tt00",
"rrttr>o..+@$$,,<%O  @,i5u*&rrr00",
"rrttr>=X.++@$%1<2@  O@24;=-rrr00",
"rr00rr>oX.+@@$$%<%$  O,%*-6rttrr",
"rr00rrr6=oX.O@@@$$$@@@**=qrrttrr",
"ttrr00rr--ooo+++@$$@@**->rrrrr00",
"ttrr00rrr>=*oo+@@@@***:6qrrrrr00",
"rr00rrrrrrrre:====:>>e00rr00rrrr",
"rr00rrrrrrrrrrrr00rrrr00rr00rrrr",
"0000rr000000rr00rrrrrrrryyrrrr00",
"0000rr000000rr00rrrrrrrryyrrrr00",
"rr0000rr000000tt00yyrrrr00rr00rr",
"rr0000rr000000tt00yyrrrr00rr00rr",
"88rr00rr00rrrr00rrttrr00rrrrrr00",
"88rr00rr00rrrr00rrttrr00rrrrrr00"
};
