/* XPM */
static char *result[] = {
/* columns rows colors chars-per-pixel */
"32 32 15 1 ",
"  c #59310C",
". c #653B11",
"X c #754716",
"o c #824E1C",
"O c #925A25",
"+ c #935A25",
"@ c #9B5925",
"# c #9D5928",
"$ c #A6662B",
"% c #A4662C",
"& c #B3692E",
"* c #B7692C",
"= c #B77232",
"- c #B47235",
"; c #C68344",
/* pixels */
"%%%%%%@@**%%%%**%%%%****@@%%OO@@",
"%%%%%%@@**%%%%**%%%%****@@%%OO@@",
"%%**%%%%%%@@**@@****%%@@%%@@%%%%",
"%%**%%%%%%@@**@@****%%@@%%@@%%%%",
"%%%%@@%%%%%%%%****%%**%%@@%%%%%%",
"%%%%@@%%%%%%-o+&$--o**%%@@%%%%%%",
"@@%%**%%%%%%oooo-o-$-@**@@@@%%@@",
"@@%%**%%%$%%#Xoooo++#$**@@@@%%@@",
"@@%%@@%%$$oo-Xoooo-#-$+@%%%%@@%%",
"@@%%@@%$#XooX-ooooo+;Xo+%%%%@@%%",
"**@@%%%#ooX.X&-ooo&-Xo$+@@%%%%%%",
"**@@%%#o$X$o$XX $oXX$.o&$#%%%%%%",
"%%@@%%oo&X#oX #--oooooo-#$%%@@%%",
"%%@@%%+oo+X;X#o&$-####-+o#%%@@%%",
"@@%%@@oXX.#o-o-..-oX+X#oXo%%%%%%",
"@@%%@@X#oX.Xo$X.X$oX$X&oo$%%%%%%",
"**%%**o-o$X##&-o$##-o$&oo&@@**@@",
"**%%**oXo&$ooo+o-X$XXXXo$%@@**@@",
"%%**%%+ooo-#oXX$#XXo$o-o%%%%%%@@",
"%%**%%###oXX#oXoX&+$.o#&%%%%%%@@",
"%%@@%%%%&+oo$#oooX##&$%%%%%%**%%",
"%%@@%%%%@++o+-&$#oo+;%%%%%%%**%%",
"**%%@@%%%%+++ooXXX&O%%%%%%%%%%@@",
"**%%@@%%%%@@%##$$%OO%%%%%%%%%%@@",
"%%@@%%%%%%%%-oX#@@%%%%@@%%@@%%%%",
"%%@@%%%%%%%%%$#%@@%%%%@@%%@@%%%%",
"@@@@%%@@@@@@%%@@%%%%%%%%==%%%%@@",
"@@@@%%@@@@@@%%@@%%%%%%%%==%%%%@@",
"%%@@@@%%@@@@@@**@@==%%%%@@%%@@%%",
"%%@@@@%%@@@@@@**@@==%%%%@@%%@@%%",
"OO%%@@%%@@%%%%@@%%**%%@@%%%%%%@@",
"OO%%@@%%@@%%%%@@%%**%%@@%%%%%%@@"
};
