/* XPM */
static char *result[] = {
/* columns rows colors chars-per-pixel */
"32 32 45 1 ",
"  c #161610",
". c #24241B",
"X c #2A211B",
"o c #2A2B21",
"O c #3E2D27",
"+ c #3F3F2E",
"@ c #4A2A09",
"# c #4A2718",
"$ c #5D301E",
"% c #653B11",
"& c #553F34",
"* c #713A24",
"= c #754716",
"- c #474834",
"; c #52533B",
": c #5E5F43",
"> c #6D5243",
", c #6A6B4E",
"< c #7A7B5A",
"1 c #824E1C",
"2 c #86462E",
"3 c #925A25",
"4 c #935A25",
"5 c #9B5925",
"6 c #9D5928",
"7 c #9D5538",
"8 c #A6662B",
"9 c #A4662C",
"0 c #B3692E",
"q c #B7692C",
"w c #B77232",
"e c #B47235",
"r c #866652",
"t c #A27A62",
"y c #8B8D66",
"u c #9E9F76",
"i c #BD9072",
"p c #C68344",
"a c #D5904F",
"s c #E4B65A",
"d c #ACB283",
"f c #BFC590",
"g c #E5ECAC",
"h c #F9FFBF",
"j c white",
/* pixels */
"99999955qq9999qq9999qqqq55993355",
"99999955qq9999qq9999qqqq55993355",
"99qq99999955qq55qqqq995599559999",
"99qq99999955qq55qqqq995599559999",
"99995599999999qqqq99qq9955999999",
"99995599999999qqqq99qq9955999999",
"5599qqhhhh,,qq99999955qq55559955",
"5599q,iuuujjj,=9999955qq55559955",
"55995di:t+,ihjf9qq99995599995599",
"55995yt  .O&>ry,,,,19s5599995599",
"qq559<o. X#$1471dadjjjj955999999",
"qq559,r.>$*1ppp86e$dfdsj55999999",
"99559;+>#4ppp88eep81*++ig=995599",
"99559;,+$8ppppe86eae1&>+fg195599",
"55995+::>papee484eaa8$s-ug=99999",
"559955+8epa681811peap%+o<g499999",
"qq99qq+,epa688618p8ap$+><u15qq55",
"qq99qq+apppp481888eaa$+;<=15qq55",
"99qq99*+;=46pea88paee;,,=9999955",
"99qq99$+;$=4epapaaep8,,%99999955",
"995599$+,>$$6epaapppa,609999qq99",
"995599=%rios*s2114<,09999999qq99",
"qq99551*#s<o-O$$>,,2899999999955",
"qq995592*,<<:oi:u<*2999999999955",
"99559999922&<<<;**89995599559999",
"995599999992@$#*6899995599559999",
"555599555555995599999999ww999955",
"555599555555995599999999ww999955",
"99555599555555qq55ww999955995599",
"99555599555555qq55ww999955995599",
"339955995599995599qq995599999955",
"339955995599995599qq995599999955"
};
