/* XPM */
static char *bca40c24f80c4dadd8ca763749e800e9FDENIbmOTrGiT1Ur[] = {
/* columns rows colors chars-per-pixel */
"32 32 5 1 ",
"  c #925A25",
". c #9B5925",
"X c #A4662C",
"o c #B7692C",
"O c #B77232",
/* pixels */
"XXXXXX..ooXXXXooXXXXoooo..XX  ..",
"XXXXXX..ooXXXXooXXXXoooo..XX  ..",
"XXooXXXXXX..oo..ooooXX..XX..XXXX",
"XXooXXXXXX..oo..ooooXX..XX..XXXX",
"XXXX..XXXXXXXXooooXXooXX..XXXXXX",
"XXXX..XXXXXXXXooooXXooXX..XXXXXX",
"..XXooXXXXXXooXXXXXX..oo....XX..",
"..XXooXXXXXXooXXXXXX..oo....XX..",
"..XX..XX..XXXXXXooXXXX..XXXX..XX",
"..XX..XX..XXXXXXooXXXX..XXXX..XX",
"oo..XXXXooXXXXXXXXXX..XX..XXXXXX",
"oo..XXXXooXXXXXXXXXX..XX..XXXXXX",
"XX..XXXX..XXooooXXXXoo  XXXX..XX",
"XX..XXXX..XXooooXXXXoo  XXXX..XX",
"..XX....XXooXXXX..XXXXXXXXXXXXXX",
"..XX....XXooXXXX..XXXXXXXXXXXXXX",
"ooXXooXXXXooXXXXXX  XX..XX..oo..",
"ooXXooXXXXooXXXXXX  XX..XX..oo..",
"XXooXXooooXXXX....XX  XXXXXXXX..",
"XXooXXooooXXXX....XX  XXXXXXXX..",
"XX..XXXX..ooXXXX..XXXXXXXXXXooXX",
"XX..XXXX..ooXXXX..XXXXXXXXXXooXX",
"ooXX..XXXX..XXXXXX  XXXXXXXXXX..",
"ooXX..XXXX..XXXXXX  XXXXXXXXXX..",
"XX..XXXXXXXXXXXX..XXXX..XX..XXXX",
"XX..XXXXXXXXXXXX..XXXX..XX..XXXX",
"....XX......XX..XXXXXXXXOOXXXX..",
"....XX......XX..XXXXXXXXOOXXXX..",
"XX....XX......oo..OOXXXX..XX..XX",
"XX....XX......oo..OOXXXX..XX..XX",
"  XX..XX..XXXX..XXooXX..XXXXXX..",
"  XX..XX..XXXX..XXooXX..XXXXXX.."
};
