/* XPM */
static char *result[] = {
/* columns rows colors chars-per-pixel */
"32 32 47 1 ",
"  c #161610",
". c #1B1610",
"X c #2A150E",
"o c #311B02",
"O c #3B1E13",
"+ c #3B2407",
"@ c #24241B",
"# c #2A211B",
"$ c #2A2B21",
"% c #3E2D27",
"& c #343527",
"* c #3F3F2E",
"= c #4A2A09",
"- c #59310C",
"; c #4A2718",
": c #5D301E",
"> c #653B11",
", c #553F34",
"< c #713A24",
"1 c #754716",
"2 c #474834",
"3 c #52533B",
"4 c #5E5F43",
"5 c #6D5243",
"6 c #6A6B4E",
"7 c #7A7B5A",
"8 c #824E1C",
"9 c #86462E",
"0 c #925A25",
"q c #935A25",
"w c #9B5925",
"e c #9D5928",
"r c #A65D2B",
"t c #A6662B",
"y c #A4662C",
"u c #B3692E",
"i c #B7692C",
"p c #B77232",
"a c #B47235",
"s c #8B8D66",
"d c #9E9F76",
"f c #C68344",
"g c #9A9A9A",
"h c #ACB283",
"j c #BFC590",
"k c #D2D89E",
"l c white",
/* pixels */
"yyyyyywwiiyyyyiiyyyyiiiiwwyy00ww",
"yyyyyywwiiyyyyiiyyyyiiiiwwyy00ww",
"yyiiyyyyyywwiiwwiiiiyywwyywwyyyy",
"yyiiyyyyyywwiiwwiiiiyywwyywwyyyy",
"yyyywwyyyyyyyyiiiiyyiiyywwyyyyyy",
"yyyywwyyyyyyyyiiiiyyiiyywwyyyyyy",
"wwyyiiyyyyyyettf8etttwiiwwwwyyww",
"wwyyiiyy8<18888a8e881888wwwwyyww",
"wwyyww88188>11:8qqq88988eyyywwyy",
"wwyywwqa8q11>1>1u<8qurq>8tyywwyy",
"iiwwu911881<taatuf88<tqt18uyyyyy",
"iiwwe8><q88tu811>>e11:8qu<tyyyyy",
"yyww88<q88tu>-;o5,--111tyyyywwyy",
"yywwyyq8t1>+#244  k4*8t<teyywwyy",
"wwyyww11u>+.3dd  2kks:qa1u1yyyyy",
"wwyywf>>e+.@hhd 3lkkg=1f11>yyyyy",
"iiyyi<:e>..&*@ 4sdjjkX=1:>8wiiww",
"iiyyi>:e>.@     7sdhjX-88>8wiiww",
"yyiiy1>a1.  &33& @7s2+>8>>8yyyww",
"yyiiye11q-X.@*247&@3;uq8>1>yyyww",
"yywwyy1181-O#$$*46#%:uq>18tyiiyy",
"yywwyyqa8q>a### %%;:uee118eyiiyy",
"iiyyufyyu811q11tuf8qu<<8teyyyyww",
"iiyye1yyy1<1111qq818f:8tyyyyyyww",
"yyww81uuy8t11>181>18t8wwyywwyyyy",
"yywwyy811uyyy88ttwyyyywwyywwyyyy",
"wwwwyywwwwwwyywwyyyyyyyyppyyyyww",
"wwwwyywwwwwwyywwyyyyyyyyppyyyyww",
"yywwwwyywwwwwwiiwwppyyyywwyywwyy",
"yywwwwyywwwwwwiiwwppyyyywwyywwyy",
"00yywwyywwyyyywwyyiiyywwyyyyyyww",
"00yywwyywwyyyywwyyiiyywwyyyyyyww"
};
