/* XPM */
static char *result[] = {
/* columns rows colors chars-per-pixel */
"32 32 15 1 ",
"  c #1B1D14",
". c #3C0200",
"X c #28283D",
"o c #590600",
"O c #7D0D00",
"+ c #010D65",
"@ c #404059",
"# c #991200",
"$ c #B61700",
"% c #D61E00",
"& c #A46D31",
"* c #AC6C30",
"= c #B47939",
"- c #C57D39",
"; c #C58541",
/* pixels */
"======**--====--====----**==&&**",
"======**--====--====----**==&&**",
"==--======**--**----==**==**====",
"==--======**--**----==**==**====",
"====**========----==--==**======",
"====**========----==--==**======",
"**==--======--======**--****==**",
"**==--=$$$$$$$$$$=$$**--****==**",
"**==**#%%%%%%%%%%O%%#+O*====**==",
"**==*O#%%%%%%%%%%O%%#+O*====**==",
"--**=O#%%%%%%%%%%O%%#O$$**======",
"--**=O#%%%%%%%%%%O%%#O%$$*======",
"==**=O#$$$$$$$$$$O$$#+$%%$==**==",
"==**=O#OOOOOOOOOOo$O#+#$##==**==",
"**==*Oooooooooooo.OoOOO#Oo======",
"**==*ooooooooooo.OoooOOo..======",
"--==-oooooooooo.Ooooooo..=**--**",
"--==-..........o.......  =**--**",
"==--= ........o.......    ====**",
"==--= X@ @ @X @ @ @ @X    ====**",
"==**=  XXXXX  XXXXXXX     ==--==",
"==**==                   ===--==",
"--==**                 =======**",
"--==**=               ========**",
"==**====            ==**==**====",
"==**============**====**==**====",
"****==******==**========;;====**",
"****==******==**========;;====**",
"==****==******--**;;====**==**==",
"==****==******--**;;====**==**==",
"&&==**==**====**==--==**======**",
"&&==**==**====**==--==**======**"
};
