/* XPM */
static char *_8a2a45c30f7475cfb1d447fbd889abapl2Fug8bGNuxeKgS[] = {
/* columns rows colors chars-per-pixel */
"32 32 7 1 ",
"  c #9A3513",
". c #AD4919",
"X c #925A25",
"o c #9B5925",
"O c #B75920",
"+ c #A4662C",
"@ c #B7692C",
/* pixels */
"..++..ooOO..++@@....@@OOoo++  oo",
"..++..ooOO..++@@....@@OOoo++  oo",
"++@@++....ooOO  OOOO..  ++  ++..",
"++@@++....ooOO  OOOO..  ++  ++..",
"..++  ........@@@@..OO..  ..++++",
"..++  ........@@@@..OO..  ..++++",
"  ..OO..++..OO..++..  OO    ..  ",
"  ..OO..++..OO..++..  OO    ..  ",
"  ..  ++oo......@@....  ..++  ..",
"  ..  ++oo......@@....  ..++  ..",
"@@  ..++OO++......++  ++  ....++",
"@@  ..++OO++......++  ++  ....++",
"..  ....oo..@@OO....OO  ..++oo++",
"..  ....oo..@@OO....OO  ..++oo++",
"  ..  oo..OO++..  ....++oo......",
"  ..  oo..OO++..  ....++oo......",
"OO++OO++++OO....++  ..  ++  OO  ",
"OO++OO++++OO....++  ..  ++  OO  ",
"..OO..@@OO....    ..  ........oo",
"..OO..@@OO....    ..  ........oo",
"++  ....  OO..++  ....++....@@++",
"++  ....  OO..++  ....++....@@++",
"@@..  ++..  ......  ++......++  ",
"@@..  ++..  ......  ++......++  ",
"..  ......++....oo..++  ..oo....",
"..  ......++....oo..++  ..oo....",
"oo  ++oo  oo++  ........OO++..  ",
"oo  ++oo  oo++  ........OO++..  ",
"..    ++oo    @@  OO..++  ..oo++",
"..    ++oo    @@  OO..++  ..oo++",
"XX..  ..  ..++oo..@@++  ..++..oo",
"XX..  ..  ..++oo..@@++  ..++..oo"
};
