/* XPM */
static char *result[] = {
/* columns rows colors chars-per-pixel */
"32 32 89 1 ",
"  c #7F4D12",
". c #92561C",
"X c #925A25",
"o c #9B5925",
"O c #A25F23",
"+ c #AD6726",
"@ c #A4662C",
"# c #B7692C",
"$ c #B77232",
"% c #A03679",
"& c #A1347B",
"* c #A1357B",
"= c #A63A7A",
"- c #A73A7B",
"; c #A7397C",
": c #A73A7C",
"> c #A7535B",
", c #AE5F5E",
"< c #BE625E",
"1 c #A85360",
"2 c #A85361",
"3 c #AE5F62",
"4 c #AF5F62",
"5 c #AF5F63",
"6 c #B25F6A",
"7 c #B3427C",
"8 c #B2437C",
"9 c #B3427F",
"0 c #BD4B7F",
"q c #B8587C",
"w c #BE6262",
"e c #BF6262",
"r c #B62F97",
"t c #B717A6",
"y c #B717A7",
"u c #BC23A7",
"i c #BD23A7",
"p c #BC24A6",
"a c #BD24A7",
"s c #CC35A8",
"d c #CC34A9",
"f c #CD34A9",
"g c #C73DAC",
"h c #B94680",
"j c #B34D81",
"k c #BD4B80",
"l c #BD4A81",
"z c #BA4D8B",
"x c #B95881",
"c c #B95882",
"v c #BF588C",
"b c #BE4A96",
"n c #BD4598",
"m c #BF449C",
"M c #C45180",
"N c #C45181",
"B c #C45182",
"V c #C85581",
"C c #C55B81",
"Z c #C55B82",
"A c #CE469B",
"S c #C1489D",
"D c #C35597",
"F c #C15099",
"G c #C25099",
"H c #C2509A",
"J c #C6539E",
"K c #C56283",
"L c #D642A9",
"P c #D741AB",
"I c #DA4FBC",
"U c #DD00D6",
"Y c #DE00D8",
"T c #E000D7",
"R c #E400D8",
"E c #E604D8",
"W c #E91AD7",
"Q c #E718DC",
"! c #E818DB",
"~ c #E818DC",
"^ c #D823C2",
"/ c #D822C3",
"( c #DE27CE",
") c #DF27CE",
"_ c #E02DCE",
"` c #E600E2",
"' c #EB00E3",
"] c #EC00E3",
"[ c #EF00E3",
/* pixels */
"@@@@@qhO+V@@@@##@@@@#WVVWo@@XXoo",
"@@@@@@s0NP@@@@##@@@@w^AL[o@@XXoo",
"@@##@v@@@@zo##oo####pr/[@@oo@@@@",
"@@##@@@D@@bo##oo####iioo@@oo@@@@",
"@@@@oo@@iu@@@@####@@w#@@oo@@@@@@",
"@@@@oo@@ii@@@@####@@e#@@oo@@@@@@",
"oo@@##@D@@D@##@@@@@@fkMLoooo@@oo",
"oo@@##@@,@6@##@@@@@@dlBPoooo@@oo",
"oo@@o1p-9f@@@@@@##@@@@oo@@@@oo@@",
"oo@@o2a:7s@@@@@@##@@@@om@@@@oo@@",
"##oo@@@@<#6@@@@@@@@Qd9;ujo@@@@@@",
"##oo@@@@##@@@@@@@@@~f9:ajo@@@@@@",
"@@oo@xai2o@@####@@@@##XX@@@@oo@@",
"@@oo@xaijo@@####@@@@##XX@@@@oo@@",
"oo@@oonn@@##@@@@oo@@i&*aH@@@@@@@",
"oo@@oonUU4##@@@@oo@@a*%pG@@@@@@@",
"##@@#Za*%p##@@@@@@XX4UUg@@oo##oo",
"##@@#Cp%*i##@@@@@@XX33oo@@oo##oo",
"@@##@@####@@@@oooo@@ty@@@@@@@@oo",
"@@##@@####@@@@oooo@@ty@@@@@@@@oo",
"@@oo@@@_ff!#@@@@oo@@33@@@@@@##@@",
"@@oo@@@_ff!#@@@@oo@@4UUF@@@@##@@",
"##@@oo@@@@oo@@@@@@XXa*%px@@@@@oo",
"##@@oS@@@@oo@@@@@@XXp%*ac@@@@@oo",
"@@oo@@p%*i@@@@@@oo@@4UUn@@oo@@@@",
"@@oo@@a*&i@@@@@@oo@@@@nn@@oo@@@@",
"oooo@Joooooo@@oo@@@@@ciaK$@@@@oo",
"oooo@Joo>ooo@@oo@@@@@5iiK$@@@@oo",
"@@ooooa:9f)ooo##oo$$@@FFoo@@oo@@",
"@@oooop=8s(ooo##oo$I`TR'oo@@oo@@",
"XX@@oS@@>o@@@@oo@@#`p-9f]@@@@@oo",
"XX@@oo@@oo@@@@oo@@#Y* .hE@@@@@oo"
};
